<svg xmlns="http://www.w3.org/2000/svg" width="256" height="256" viewBox="0 0 256 256"><path fill="none" stroke="#7c345e" stroke-linecap="round" stroke-linejoin="round" stroke-width="10" d="M128 17l45 27-31 31h-37L82 48l46-31zm-76 92l44 38-40 30-39-11 35-57zm171-2l17 55-42 18-20-41 45-32zM16.5 165.5l27 72m53 0v-90m-15-100l7.5 91m15.5-64l12 163m56-194L159 176"/><path fill="none" stroke="#7c345e" stroke-linecap="round" stroke-linejoin="round" stroke-width="10" d="M177.5 138.5l-46 99 10-163m-90 34l4 68 22 61m162-76l-58 78m-14 0l30-60 25-73m-193 133h168"/></svg>